<?xml version="1.0" standalone="no"?>
<!DOCTYPE svg PUBLIC "-//W3C//DTD SVG 20010904//EN"
 "http://www.w3.org/TR/2001/REC-SVG-20010904/DTD/svg10.dtd">
<svg version="1.0" xmlns="http://www.w3.org/2000/svg"
 width="36.000000pt" height="36.000000pt" viewBox="0 0 36.000000 36.000000"
 preserveAspectRatio="xMidYMid meet">
<metadata>
Created by potrace 1.16, written by Peter Selinger 2001-2019
</metadata>
<g transform="translate(0.000000,36.000000) scale(0.007317,-0.007332)"
fill="#000000" stroke="none">
<path d="M2250 4899 c-107 -7 -240 -27 -362 -55 -92 -21 -143 -59 -261 -190
-110 -123 -177 -243 -221 -394 -13 -47 -34 -112 -46 -145 -12 -33 -27 -78 -35
-100 -7 -22 -34 -98 -60 -170 -25 -71 -48 -137 -50 -145 -2 -8 -8 -28 -14 -43
-17 -44 -12 -46 10 -4 11 20 21 37 23 37 9 0 -5 -61 -24 -104 -11 -26 -20 -65
-20 -87 0 -36 -35 -182 -49 -204 -3 -5 -6 -23 -7 -40 0 -16 -4 -60 -8 -98 -7
-59 -6 -67 8 -61 13 5 15 -2 10 -48 -7 -82 -7 -97 5 -178 15 -93 23 -113 16
-39 -4 41 -1 60 9 68 18 15 29 -1 22 -32 -4 -15 -2 -14 7 6 13 26 14 27 29 10
17 -20 35 -79 69 -223 12 -52 28 -109 36 -127 24 -58 17 -99 -24 -150 -38 -45
-38 -45 -90 -40 -29 3 -53 2 -53 -3 0 -5 17 -19 39 -32 l39 -22 -57 -24 c-86
-38 -273 -101 -301 -102 -14 -1 -41 -8 -60 -15 -29 -11 -31 -14 -12 -14 38 -1
24 -35 -16 -39 -17 -2 -32 -7 -32 -13 0 -8 14 -13 31 -11 4 1 5 -8 2 -18 -4
-13 0 -20 10 -20 8 0 17 9 20 20 4 17 12 20 46 18 27 -1 41 -7 41 -16 0 -10 8
-12 30 -7 22 5 37 1 55 -13 l26 -21 -23 -4 c-20 -3 -19 -5 10 -12 17 -4 32
-12 32 -17 0 -6 7 -7 15 -4 10 3 18 -1 22 -12 19 -54 46 -104 58 -109 8 -3 15
-11 15 -19 0 -26 23 -51 41 -47 13 4 18 -2 21 -24 2 -15 8 -27 14 -26 7 1 15
-14 19 -34 5 -27 9 -33 16 -22 7 12 9 12 9 0 0 -8 10 -36 22 -63 15 -32 24
-44 30 -36 5 9 8 5 9 -12 1 -14 2 -32 3 -41 1 -9 7 -23 15 -32 7 -10 11 -17 7
-17 -4 0 0 -10 9 -23 8 -13 13 -26 9 -29 -10 -10 38 -99 62 -115 13 -8 24 -22
24 -29 0 -8 11 -20 25 -26 14 -6 25 -17 25 -25 0 -7 10 -13 21 -13 19 0 21 4
16 39 -2 22 -1 43 3 48 4 4 10 17 13 28 3 11 6 -11 8 -50 1 -45 4 -57 6 -32 4
33 6 35 19 23 11 -11 12 -24 6 -53 -5 -21 -5 -49 -1 -63 4 -14 7 -19 8 -11 1
11 4 11 17 1 8 -8 14 -9 13 -4 -1 5 -1 31 0 58 1 49 1 49 21 31 11 -10 18 -25
16 -34 -19 -63 -18 -66 13 -68 21 -1 29 2 25 11 -3 7 0 23 5 37 l10 24 0 -27
c1 -26 31 -54 45 -41 3 3 6 -1 6 -10 0 -9 5 -17 10 -17 16 0 11 33 -10 68 -11
18 -20 38 -20 46 0 7 -12 35 -26 62 -15 27 -27 56 -28 64 -4 29 -38 100 -46
95 -14 -9 -81 214 -87 288 -3 37 -10 70 -14 73 -5 3 -9 24 -9 47 0 31 3 38 10
27 7 -11 10 -8 10 16 0 16 -5 35 -12 42 -9 9 -9 15 0 24 7 7 12 35 13 62 1 49
14 112 19 91 2 -5 4 -26 6 -45 6 -81 17 -140 25 -140 5 0 9 -8 9 -17 1 -10 7
-29 15 -43 l14 -25 1 35 c0 19 7 48 16 65 8 16 14 44 12 62 -1 17 1 35 5 39 4
4 7 14 7 23 0 9 8 25 17 36 15 19 15 19 8 -5 -4 -14 -8 -38 -10 -55 -3 -26 -2
-28 9 -12 18 24 24 21 18 -9 -3 -19 -1 -25 7 -20 6 4 11 16 11 27 0 10 5 19
11 19 5 0 7 4 4 10 -3 5 3 15 15 22 11 7 20 23 20 36 0 38 18 16 25 -31 13
-89 16 -96 36 -94 12 1 23 13 30 34 6 18 15 33 20 33 14 0 11 -16 -15 -70 -19
-39 -24 -63 -21 -106 1 -31 8 -61 15 -67 12 -12 9 6 -8 52 -4 10 -1 12 8 6 10
-6 12 1 7 38 -4 29 -3 47 3 47 6 0 10 7 10 15 0 21 57 13 76 -11 11 -14 17
-16 21 -6 4 10 8 10 19 1 19 -16 18 -3 -7 48 -19 39 -20 46 -7 61 8 9 20 32
28 50 7 17 16 32 20 32 10 0 30 47 30 71 0 18 2 19 30 4 44 -23 53 -19 35 14
-9 19 -11 32 -5 36 6 4 8 11 5 16 -4 5 -1 9 4 9 6 0 11 7 11 16 0 9 -20 24
-50 36 -48 20 -65 38 -36 38 8 0 20 13 27 29 8 17 16 26 20 20 8 -13 4 78 -6
119 -4 18 -4 32 2 32 13 0 14 40 0 40 -7 1 2 7 20 15 30 13 32 16 26 50 -6 36
-5 37 23 34 16 -1 42 3 57 10 16 6 32 11 37 11 14 0 22 38 12 57 -5 10 -7 24
-4 32 3 10 -4 12 -32 9 -19 -2 -38 1 -40 7 -3 6 -5 5 -5 -2 -1 -7 -12 -13 -26
-13 -20 0 -24 4 -21 23 3 22 7 23 73 26 12 1 24 9 28 20 6 20 37 35 93 46 18
4 30 10 27 15 -5 7 -37 7 -170 -4 -68 -5 -105 3 -105 23 1 29 24 48 65 54 213
32 213 32 199 45 -7 6 -22 12 -33 12 -10 0 -21 6 -24 14 -4 9 -24 14 -62 14
-31 0 -79 3 -106 7 -42 6 -47 9 -35 21 8 8 33 14 55 14 56 0 58 14 6 41 -27
15 -45 31 -45 41 0 11 -8 18 -20 18 -14 0 -22 11 -30 41 -18 67 1 181 54 323
17 48 26 92 28 150 l2 81 -47 58 c-26 32 -47 63 -47 70 0 9 3 8 9 -1 6 -10 10
-10 20 1 7 10 34 15 79 15 37 1 110 4 162 7 77 4 100 2 115 -10 19 -14 19 -16
2 -26 -9 -5 -15 -14 -12 -20 4 -5 -3 -9 -15 -9 -12 0 -19 -4 -15 -10 6 -10
105 -8 123 4 19 11 163 9 195 -3 16 -6 41 -11 57 -11 16 0 31 -4 34 -9 3 -4
17 -6 31 -3 19 3 25 0 26 -14 0 -17 2 -16 11 3 8 17 6 31 -11 65 -24 50 -26
62 -10 52 16 -10 2 48 -14 58 -9 6 -9 10 1 17 11 6 9 9 -6 13 -12 3 -29 25
-40 52 -12 25 -22 46 -24 46 -7 0 4 -75 12 -85 4 -5 17 -43 30 -82 24 -74 22
-102 -5 -67 -8 10 -15 15 -15 9 0 -5 -7 1 -16 13 -8 12 -14 30 -13 40 3 29 -1
46 -8 38 -11 -10 -43 69 -47 119 -3 24 -8 50 -11 56 -9 14 -34 120 -34 139 1
8 5 4 9 -10 7 -20 8 -16 10 25 l2 50 19 -40 c10 -22 19 -48 19 -57 0 -9 4 -19
8 -22 4 -2 6 25 4 62 -2 44 0 62 6 53 8 -10 13 -9 25 9 l15 22 5 -23 c4 -21 5
-20 6 6 2 27 4 24 19 -22 17 -50 36 -84 25 -45 -2 11 0 23 6 26 6 4 11 0 11
-11 1 -17 2 -17 15 1 11 15 14 38 10 90 -4 49 -2 65 4 51 11 -22 13 -13 13 43
0 32 17 47 19 15 0 -15 2 -15 9 2 7 16 8 12 8 -16 -1 -20 2 -41 6 -47 3 -6 9
-30 12 -54 7 -52 14 -62 15 -22 1 16 2 36 3 44 2 8 4 31 5 50 l3 35 9 -44 c9
-47 69 -184 77 -176 3 2 6 20 9 39 2 26 -6 54 -30 103 -25 48 -32 74 -26 88
11 29 11 37 -2 29 -8 -5 -8 -1 0 14 8 15 7 23 -3 32 -17 13 -38 70 -27 70 4 0
21 -11 37 -25 20 -18 30 -21 36 -12 6 9 8 9 8 -1 0 -10 48 -86 83 -130 19 -23
18 -5 -2 41 -50 115 41 25 163 -163 27 -41 59 -86 71 -100 12 -14 34 -45 49
-70 14 -25 31 -52 36 -60 14 -22 66 -141 75 -170 4 -14 16 -43 26 -65 28 -61
69 -176 69 -192 0 -7 9 -23 20 -35 l20 -22 0 25 c0 13 -7 48 -15 78 -7 29 -17
79 -21 110 -3 31 -10 61 -15 66 -4 6 -15 33 -25 60 -9 28 -46 96 -83 151 -36
56 -83 130 -104 165 -27 45 -41 59 -47 49 -5 -8 -1 -25 11 -44 10 -17 19 -35
19 -41 0 -5 -12 9 -26 33 -14 23 -22 47 -19 52 7 12 -19 53 -28 43 -4 -3 -7
-2 -7 4 0 6 -10 26 -23 45 -13 18 -24 50 -25 70 -1 21 -8 54 -17 74 -8 20 -13
40 -10 43 3 3 8 -5 11 -16 6 -22 54 -62 54 -45 0 5 -10 24 -22 42 -17 23 -41
39 -88 57 -91 34 -328 90 -442 105 -114 14 -124 10 -189 -80 -50 -68 -67 -86
-48 -52 8 14 14 32 14 40 1 8 7 14 13 12 7 -1 12 4 10 12 -2 8 1 15 6 15 8 0
36 53 36 69 0 3 -8 -2 -17 -10 -32 -27 -50 -34 -30 -11 17 20 17 21 0 25 -41
10 -191 9 -198 -1 -3 -7 -13 -8 -23 -3 -9 4 -64 5 -122 1z m-370 -1424 c0 -18
-7 -38 -15 -45 -8 -7 -15 -19 -15 -27 0 -7 -16 -43 -35 -79 -19 -35 -35 -70
-35 -78 0 -14 -50 -64 -51 -50 -7 93 -6 134 2 134 5 0 9 7 9 16 0 42 34 116
63 136 21 15 32 18 35 10 2 -7 8 -12 14 -12 5 0 7 9 3 20 -5 15 -3 18 9 14 10
-4 16 -18 16 -39z m-104 -422 c37 -79 46 -129 31 -186 -16 -59 -64 -1 -66 80
-1 17 -9 51 -20 75 -13 31 -16 50 -9 61 5 9 6 17 2 17 -3 0 -1 7 6 15 7 8 14
15 16 15 1 0 19 -35 40 -77z"/>
<path d="M3375 3899 c2 -31 12 -75 20 -99 16 -45 19 -181 5 -235 l-8 -30 -3
30 c-1 17 -2 39 -1 50 2 38 -10 115 -19 115 -4 0 -10 -33 -12 -72 -3 -64 -3
-60 -5 28 -2 91 -15 195 -29 234 -7 16 -31 -185 -32 -262 -1 -25 -6 -48 -12
-50 -7 -2 -14 -36 -16 -78 -4 -65 -2 -78 15 -96 31 -33 36 -62 16 -105 -20
-45 -14 -57 20 -41 18 8 28 7 44 -3 10 -8 22 -12 25 -8 4 3 12 -6 18 -21 10
-22 9 -32 -7 -62 -56 -106 -127 -145 -157 -88 -8 15 -17 23 -19 18 -3 -5 -18
-57 -32 -116 -14 -59 -37 -136 -52 -170 -28 -66 -88 -246 -99 -299 l-7 -31 27
18 c21 14 28 15 35 5 12 -20 60 10 114 70 52 58 70 92 96 189 14 50 19 58 20
35 l2 -30 11 32 c17 45 29 53 22 15 -3 -18 -3 -32 0 -32 2 0 30 54 62 120 32
66 62 120 67 120 5 0 6 -22 3 -49 -11 -94 16 -116 49 -38 9 23 18 37 21 31 2
-7 13 -10 23 -7 21 6 50 88 50 141 0 17 5 43 11 59 15 41 3 110 -21 116 -17 4
-20 14 -20 69 0 111 -30 262 -79 400 -30 88 -38 97 -35 41 5 -88 16 -198 21
-207 3 -5 7 -41 8 -81 1 -52 -2 -72 -11 -72 -14 0 -20 30 -30 145 -6 70 -9 80
-19 65 -11 -15 -14 -11 -20 32 -7 56 -15 89 -45 190 l-21 70 6 -56z"/>
<path d="M2498 3806 c-50 -48 -62 -75 -45 -103 4 -6 1 -13 -5 -16 -19 -6 7
-34 51 -56 41 -21 135 -36 126 -21 -3 6 -12 10 -20 10 -7 0 -15 7 -19 15 -3 8
-1 15 3 15 5 0 7 9 4 20 -4 16 0 20 17 20 16 0 20 4 16 16 -3 8 -3 26 0 40 5
20 12 24 45 24 40 0 105 -31 92 -44 -4 -4 0 -4 10 0 10 3 31 1 47 -6 51 -21
54 -6 8 42 -50 51 -105 74 -210 86 l-67 8 -53 -50z"/>
<path d="M3792 3763 c-3 -10 -7 -43 -7 -73 l0 -55 50 -6 c28 -4 63 -12 78 -18
16 -6 48 -11 73 -11 56 0 89 -29 99 -88 7 -41 25 -56 95 -77 14 -4 38 -17 53
-28 28 -19 29 -19 69 -1 23 10 55 17 71 15 28 -3 29 -1 23 26 -4 15 -20 39
-37 53 -21 18 -29 34 -29 58 0 47 -46 132 -72 132 -5 0 -14 -14 -20 -31 -6
-19 -15 -28 -24 -25 -8 3 -18 -4 -24 -14 -14 -27 -39 -25 -80 5 -19 14 -46 25
-61 25 -15 0 -40 11 -56 24 -54 45 -106 76 -128 76 -12 0 -28 7 -35 15 -16 20
-29 19 -38 -2z"/>
<path d="M4650 3465 c-7 -8 -16 -15 -20 -15 -4 0 -29 -10 -55 -21 -52 -23 -48
-36 14 -41 35 -3 57 -22 63 -53 2 -16 -4 -21 -37 -25 -22 -3 -45 -9 -52 -13
-14 -9 -63 51 -63 76 0 11 -8 17 -25 17 -20 0 -25 -5 -25 -24 0 -38 4 -38
-146 -11 -40 7 -40 6 -59 -34 -10 -23 -20 -41 -22 -41 -14 0 -43 23 -43 34 0
8 -7 20 -16 27 -14 11 -19 10 -35 -10 -11 -13 -19 -31 -19 -42 0 -28 -14 -30
-61 -10 -65 28 -100 34 -93 18 3 -8 -2 -20 -11 -27 -8 -7 -15 -20 -15 -30 0
-10 -11 -25 -25 -34 -14 -9 -25 -20 -25 -25 0 -13 98 -45 139 -45 21 -1 38 -8
45 -18 15 -24 -4 -41 -45 -40 -18 0 -73 -12 -123 -29 -49 -16 -97 -29 -106
-29 -18 0 -110 -90 -110 -108 0 -7 -5 -11 -12 -9 -7 1 -17 -8 -23 -20 -5 -13
-15 -23 -22 -23 -7 0 -13 -6 -13 -14 0 -8 -11 -28 -25 -44 -14 -17 -25 -35
-25 -41 0 -6 -4 -11 -10 -11 -5 0 -10 5 -10 11 0 17 -61 -24 -73 -48 -6 -13
-16 -23 -23 -23 -16 0 -34 -31 -34 -61 0 -17 3 -19 14 -10 9 8 16 8 20 2 4 -6
13 -8 20 -5 7 3 16 -2 20 -11 3 -9 10 -13 16 -10 5 3 10 -1 10 -9 0 -9 -4 -16
-10 -16 -5 0 -10 5 -10 11 0 6 -7 8 -16 5 -10 -4 -13 -2 -8 7 5 9 4 9 -7 0 -7
-7 -24 -13 -37 -13 -20 0 -23 -4 -18 -24 6 -23 -12 -49 -30 -44 -26 7 -82 -15
-93 -35 -7 -13 -22 -27 -34 -32 -15 -7 -23 -20 -25 -43 -3 -28 -7 -33 -23 -29
-10 3 -21 1 -24 -4 -3 -4 -12 -6 -20 -2 -9 3 -22 0 -29 -6 -11 -9 -15 -9 -18
1 -3 9 -13 6 -33 -10 -21 -17 -31 -19 -41 -11 -8 6 -11 15 -8 20 6 10 -7 12
-30 3 -9 -3 -16 -14 -16 -23 0 -12 23 -24 88 -44 l87 -28 39 46 c42 49 72 60
63 22 -4 -12 -2 -29 4 -37 9 -13 12 -12 22 4 32 50 60 76 83 76 32 0 100 -35
108 -55 20 -52 -10 -119 -61 -137 -18 -7 -33 -14 -33 -18 0 -3 37 -23 83 -45
96 -47 161 -109 214 -203 40 -72 123 -157 135 -139 13 21 9 77 -9 105 -9 15
-37 48 -62 74 -43 45 -44 48 -27 66 9 11 34 22 56 25 29 4 49 16 78 46 37 39
42 41 100 41 41 0 66 5 76 15 20 20 94 29 129 16 31 -12 37 -52 11 -73 -9 -7
-28 -25 -43 -39 -14 -14 -34 -28 -43 -32 -10 -3 -24 -23 -33 -43 -8 -20 -28
-52 -45 -70 -16 -19 -30 -45 -30 -57 -1 -26 -22 -54 -67 -85 -45 -32 -50 -56
-18 -97 33 -44 57 -44 89 -2 27 36 140 87 192 87 35 0 44 6 73 48 36 52 50 45
66 -37 4 -19 16 -48 26 -65 11 -18 19 -50 19 -74 0 -23 7 -59 15 -79 18 -43
39 -169 56 -343 7 -69 16 -131 20 -139 16 -33 199 289 278 492 45 116 105 317
116 387 l7 46 -53 24 c-76 36 -129 77 -129 100 0 33 42 24 91 -18 24 -21 56
-45 71 -54 26 -17 26 -17 33 10 15 60 35 284 35 397 0 315 -61 637 -176 922
-41 102 -46 109 -64 88z m-390 -852 c0 -13 -99 -73 -119 -73 -11 0 -22 -4 -26
-10 -3 -5 -37 -19 -76 -32 -59 -19 -73 -20 -90 -9 -12 7 -24 9 -27 6 -4 -4 1
-11 11 -16 25 -15 11 -29 -29 -29 -19 0 -34 -5 -34 -10 0 -6 -16 -20 -36 -32
-19 -11 -32 -24 -27 -29 9 -9 137 20 172 40 13 7 51 16 85 18 33 3 66 9 71 13
6 5 30 10 55 11 43 4 45 3 48 -25 2 -16 -2 -40 -9 -53 -10 -18 -10 -29 0 -49
6 -15 10 -28 9 -29 -38 -31 -92 -32 -175 -3 -63 21 -66 21 -151 5 -48 -10
-120 -17 -160 -17 -66 0 -73 2 -70 19 2 10 -7 27 -19 37 -20 17 -21 22 -10 44
10 20 21 25 57 27 24 2 48 7 54 13 5 5 20 10 32 10 24 0 49 24 40 38 -3 6 9
13 28 16 20 4 41 16 50 30 28 43 80 67 153 70 38 2 84 8 103 14 42 12 90 15
90 5z"/>
<path d="M2455 3429 c9 -23 13 -50 10 -58 -3 -10 4 -22 18 -31 38 -25 271
-270 263 -277 -15 -15 -183 7 -211 27 -5 4 -30 4 -55 1 l-45 -7 43 -18 c23
-10 42 -23 42 -28 0 -6 6 -8 14 -5 11 5 26 -11 26 -28 0 -3 -60 -17 -84 -19
-11 0 -21 -7 -24 -15 -3 -10 2 -13 22 -9 14 3 26 1 26 -3 0 -5 -5 -9 -11 -9
-6 0 -16 -6 -24 -13 -11 -12 -10 -17 6 -30 17 -15 21 -15 52 3 19 11 42 18 51
14 9 -3 16 -1 16 5 0 6 5 11 11 11 6 0 21 13 35 29 14 17 35 33 47 37 12 4 25
11 28 17 4 5 14 7 22 4 12 -5 14 -18 10 -68 -5 -45 -3 -60 5 -55 7 4 12 13 12
20 0 7 9 31 20 54 39 81 38 93 -22 184 -30 46 -65 100 -77 121 -13 21 -45 55
-72 75 -94 72 -135 101 -152 108 -16 6 -16 3 -2 -37z"/>
<path d="M649 2076 c-90 -49 -210 -126 -266 -173 -107 -89 -223 -206 -229
-229 -5 -21 20 -106 45 -151 6 -10 23 -47 38 -83 32 -75 106 -215 132 -248
l17 -23 -1 23 c0 13 -8 35 -18 50 -13 19 -19 49 -21 107 -1 44 -5 84 -9 88 -4
3 -7 0 -8 -8 -1 -20 -40 90 -45 126 -2 17 -7 46 -10 66 -5 28 -1 45 18 73 28
44 36 45 30 6 -6 -44 13 -36 27 11 12 40 13 41 49 34 20 -4 57 -9 82 -10 51
-2 154 -50 191 -89 13 -14 28 -26 32 -26 16 0 -46 70 -79 91 -26 16 -33 26
-29 40 9 28 -4 23 -15 -5 l-9 -25 -40 20 c-22 10 -49 19 -59 19 -35 0 -82 12
-82 21 0 5 9 18 20 29 11 11 20 25 20 32 0 9 -3 9 -12 0 -20 -20 -32 -13 -13
8 10 11 22 17 27 14 5 -3 26 13 46 35 21 23 45 41 54 41 20 0 33 17 17 22 -5
2 -7 11 -3 22 5 13 15 17 34 14 19 -3 26 0 23 8 -6 17 12 26 54 27 20 1 30 3
24 5 -8 3 -6 9 6 18 21 16 37 18 28 4 -3 -5 -1 -10 4 -10 18 0 12 29 -7 39
-14 8 -30 4 -63 -13z"/>
<path d="M1701 1727 c0 -21 -5 -36 -10 -33 -13 8 -21 -43 -14 -92 4 -27 2 -42
-5 -42 -19 0 31 -121 56 -138 23 -15 23 -15 18 24 -15 114 -15 130 -5 105 5
-14 12 -41 15 -60 11 -82 16 -98 44 -140 24 -35 30 -40 30 -22 0 12 -7 24 -15
27 -17 7 -39 69 -30 84 4 6 16 -7 27 -30 27 -54 35 -44 10 13 -11 25 -23 64
-27 88 -4 24 -13 54 -21 66 -8 12 -14 45 -14 73 0 43 -25 120 -34 108 -2 -1 0
-29 3 -60 4 -32 4 -58 -1 -58 -7 0 -13 29 -21 95 -3 26 -4 24 -6 -8z"/>
<path d="M387 1733 c-3 -4 -8 -46 -11 -91 -5 -65 -4 -82 5 -76 8 5 11 2 7 -7
-3 -8 1 -31 10 -50 9 -18 19 -43 23 -54 7 -19 7 -19 8 -1 1 20 1 20 16 0 13
-18 14 -18 15 -1 0 10 5 15 10 12 6 -3 10 -1 10 4 0 6 -4 11 -10 11 -5 0 -10
5 -10 10 0 5 6 9 13 8 8 -2 13 13 15 45 2 34 0 47 -8 42 -12 -7 -8 79 5 120 7
20 6 20 -9 1 -9 -11 -16 -23 -16 -28 0 -18 -18 -6 -42 28 -14 20 -28 32 -31
27z"/>
<path d="M1064 1424 c4 -19 21 -69 37 -111 17 -41 32 -83 34 -92 5 -22 76
-194 85 -206 14 -19 22 -93 11 -100 -6 -3 -9 -11 -5 -16 3 -6 6 -46 5 -90 -1
-56 4 -89 15 -111 10 -19 18 -66 21 -121 2 -50 6 -94 9 -98 2 -4 -2 -14 -9
-21 -11 -9 -12 -21 -5 -45 6 -21 5 -40 -2 -52 -8 -16 -5 -23 18 -39 21 -15
226 -112 236 -112 2 0 3 7 3 15 0 8 -3 12 -7 10 -4 -2 -8 12 -9 33 -1 20 -3
43 -3 50 -2 18 -26 14 -31 -6 -4 -16 -5 -16 -6 1 0 9 -5 17 -11 17 -5 0 -10 5
-10 11 0 5 5 7 10 4 12 -7 9 27 -5 58 -4 10 -3 23 3 29 7 7 5 18 -4 36 -8 15
-14 32 -14 38 0 7 -6 14 -14 17 -10 4 -14 23 -15 65 0 38 -11 90 -30 148 -16
49 -31 109 -34 134 -2 25 -15 74 -29 110 -14 36 -40 103 -58 150 -57 150 -156
330 -182 330 -6 0 -8 -13 -4 -36z"/>
<path d="M2815 1048 c-4 -70 -13 -154 -20 -185 l-13 -57 34 -38 34 -38 36 52
c19 29 60 85 89 123 51 65 66 95 48 95 -15 -1 -74 -61 -71 -73 4 -21 -13 -57
-31 -66 -23 -13 -43 1 -44 32 -1 14 -5 23 -8 21 -14 -8 -19 -55 -8 -75 8 -16
8 -24 0 -32 -21 -21 -32 14 -26 78 4 33 8 83 8 110 1 28 9 60 19 74 17 25 15
46 -7 54 -7 3 -11 15 -8 30 3 16 0 24 -10 24 -12 0 -16 -26 -22 -129z"/>
</g>
</svg>
